<?xml version="1.0" standalone="no"?>
<!DOCTYPE svg PUBLIC "-//W3C//DTD SVG 20010904//EN"
 "http://www.w3.org/TR/2001/REC-SVG-20010904/DTD/svg10.dtd">
<svg version="1.0" xmlns="http://www.w3.org/2000/svg"
 width="840.000000pt" height="680.000000pt" viewBox="0 0 840.000000 680.000000"
 preserveAspectRatio="xMidYMid meet">

<g transform="translate(0.000000,680.000000) scale(0.100000,-0.100000)"
fill="#000000" stroke="none">
<path d="M3860 6375 c-294 -36 -589 -115 -850 -228 -63 -27 -117 -51 -119 -53
-6 -5 26 -74 143 -316 l105 -217 -117 -66 c-64 -37 -163 -100 -220 -141 -57
-41 -106 -74 -110 -73 -4 0 -87 103 -185 230 l-179 230 -61 -53 c-78 -65 -299
-286 -355 -354 l-42 -52 220 -181 c120 -100 222 -186 226 -192 3 -6 -7 -27
-23 -47 -52 -65 -149 -215 -197 -304 l-47 -87 -260 129 c-142 72 -262 130
-266 130 -5 0 -16 -19 -27 -43 -191 -431 -270 -767 -283 -1192 -11 -372 36
-689 152 -1041 45 -135 131 -340 146 -350 5 -2 126 52 270 121 145 69 263 124
264 122 112 -203 171 -297 264 -417 l20 -26 -230 -178 c-126 -98 -229 -182
-229 -187 0 -38 407 -444 446 -444 7 0 95 98 194 218 99 119 184 217 189 217
5 0 22 -11 38 -24 52 -44 217 -152 305 -200 l87 -47 -129 -260 c-72 -142 -130
-261 -130 -265 0 -10 182 -91 310 -137 535 -194 1126 -229 1695 -102 199 45
569 177 640 229 15 11 5 35 -111 267 -71 140 -130 257 -132 260 -2 4 37 28 85
55 89 48 254 156 306 200 16 13 33 24 37 24 5 0 91 -99 192 -220 101 -121 188
-219 195 -218 45 11 443 412 443 447 0 5 -103 88 -228 186 l-229 177 79 111
c63 88 189 295 201 330 1 4 120 -49 265 -118 144 -69 266 -123 271 -121 15 10
101 215 146 350 116 352 163 669 152 1041 -13 425 -92 761 -283 1192 -11 24
-22 43 -27 43 -4 0 -124 -58 -266 -130 l-260 -129 -47 87 c-47 88 -143 236
-196 304 -16 21 -27 42 -23 48 3 5 105 92 225 191 l220 182 -42 51 c-56 68
-277 289 -355 354 l-61 53 -124 -158 c-68 -87 -148 -190 -178 -230 -30 -40
-58 -72 -62 -72 -4 -1 -53 32 -110 73 -57 41 -156 104 -220 141 l-118 67 24
46 c53 105 226 473 226 481 0 13 -193 95 -342 146 -206 71 -423 119 -653 145
-123 14 -527 11 -655 -5z m605 -826 c310 -36 667 -168 928 -343 822 -550 1165
-1554 852 -2494 -107 -322 -290 -609 -546 -857 -409 -396 -928 -605 -1499
-605 -571 0 -1096 213 -1504 609 -445 433 -675 1006 -653 1626 39 1120 925
2017 2052 2079 84 4 263 -3 370 -15z"/>
<path d="M5009 4447 c-47 -34 -110 -74 -140 -89 -95 -46 -296 -61 -452 -33
-134 23 -205 73 -210 145 -3 41 -33 37 -64 -9 -31 -46 -31 -121 0 -176 50 -88
139 -120 369 -133 81 -4 150 -11 154 -14 3 -4 -18 -37 -48 -75 -136 -172 -327
-449 -458 -665 -57 -94 -67 -100 -120 -73 -39 20 -63 69 -64 126 -1 47 -1 47
-26 34 -62 -32 -100 -104 -100 -187 1 -91 47 -164 122 -190 l37 -13 -75 -134
c-41 -73 -93 -161 -116 -195 -62 -91 -163 -188 -233 -222 -53 -25 -71 -29
-150 -29 -80 0 -95 3 -137 27 -114 68 -180 227 -132 319 19 38 12 59 -20 59
-36 0 -81 -43 -113 -108 -39 -80 -40 -191 -1 -274 31 -67 102 -147 163 -183
133 -77 346 -73 504 10 174 92 361 316 516 617 l60 116 190 30 c104 17 191 29
193 27 3 -2 -1 -73 -8 -157 -29 -363 -5 -522 95 -620 57 -56 108 -72 213 -66
191 12 352 129 352 257 0 39 -7 39 -110 -5 -89 -37 -192 -44 -238 -14 -58 36
-65 70 -65 290 1 180 13 333 27 348 3 3 31 7 61 10 63 5 81 -5 93 -51 l8 -30
38 34 c49 42 66 83 66 154 0 108 -46 149 -167 150 -40 0 -73 2 -73 4 0 3 16
75 36 160 72 314 142 533 225 710 27 57 48 105 47 106 -9 8 -149 75 -155 75
-5 -1 -47 -29 -94 -63z m-152 -431 c-16 -42 -53 -178 -103 -381 -31 -126 -59
-233 -62 -237 -9 -9 -271 -42 -278 -36 -7 7 193 355 258 450 87 126 205 257
185 204z"/>
<path d="M5317 2412 c-34 -37 -15 -82 33 -82 51 0 69 55 28 84 -29 21 -41 20
-61 -2z m58 -8 c19 -20 16 -43 -7 -58 -38 -23 -78 35 -42 61 23 17 29 16 49
-3z"/>
<path d="M5331 2373 c0 -16 3 -22 6 -15 3 8 9 10 16 3 9 -6 12 -2 13 15 1 17
-3 24 -17 24 -14 0 -19 -7 -18 -27z"/>
</g>
</svg>
